<?xml version="1.0" encoding="iso-8859-1"?>
<!-- Generator: Adobe Illustrator 18.0.0, SVG Export Plug-In . SVG Version: 6.00 Build 0)  -->
<!DOCTYPE svg PUBLIC "-//W3C//DTD SVG 1.1//EN" "http://www.w3.org/Graphics/SVG/1.1/DTD/svg11.dtd">
<svg version="1.1" id="Capa_1" xmlns="http://www.w3.org/2000/svg" xmlns:xlink="http://www.w3.org/1999/xlink" x="0px" y="0px"
	 viewBox="0 0 57 57" style="enable-background:new 0 0 57 57;" xml:space="preserve">
<g>
	<g>
		<path style="fill:#545E73;" d="M49.455,8L49.455,8C48.724,3.538,38.281,0,25.5,0S2.276,3.538,1.545,8l0,0H1.5v0.5V20v0.5V21v11
			v0.5V33v12h0.045c0.731,4.461,11.175,8,23.955,8s23.224-3.539,23.955-8H49.5V33v-0.5V32V21v-0.5V20V8.5V8H49.455z"/>
		<g>
			<path style="fill:#38454F;" d="M25.5,41c-13.255,0-24-3.806-24-8.5V45h0.045c0.731,4.461,11.175,8,23.955,8
				s23.224-3.539,23.955-8H49.5V32.5C49.5,37.194,38.755,41,25.5,41z"/>
			<path style="fill:#38454F;" d="M1.5,32v0.5c0-0.168,0.018-0.334,0.045-0.5H1.5z"/>
			<path style="fill:#38454F;" d="M49.455,32c0.027,0.166,0.045,0.332,0.045,0.5V32H49.455z"/>
		</g>
		<g>
			<path style="fill:#556080;" d="M25.5,29c-13.255,0-24-3.806-24-8.5V33h0.045c0.731,4.461,11.175,8,23.955,8
				s23.224-3.539,23.955-8H49.5V20.5C49.5,25.194,38.755,29,25.5,29z"/>
			<path style="fill:#556080;" d="M1.5,20v0.5c0-0.168,0.018-0.334,0.045-0.5H1.5z"/>
			<path style="fill:#556080;" d="M49.455,20c0.027,0.166,0.045,0.332,0.045,0.5V20H49.455z"/>
		</g>
		<ellipse style="fill:#91BAE1;" cx="25.5" cy="8.5" rx="24" ry="8.5"/>
		<g>
			<path style="fill:#8697CB;" d="M25.5,17c-13.255,0-24-3.806-24-8.5V21h0.045c0.731,4.461,11.175,8,23.955,8
				s23.224-3.539,23.955-8H49.5V8.5C49.5,13.194,38.755,17,25.5,17z"/>
			<path style="fill:#8697CB;" d="M1.5,8v0.5c0-0.168,0.018-0.334,0.045-0.5H1.5z"/>
			<path style="fill:#8697CB;" d="M49.455,8C49.482,8.166,49.5,8.332,49.5,8.5V8H49.455z"/>
		</g>
	</g>
	<g>
		<path style="fill:#BDC3C7;" d="M55.5,43.846l-1.444-0.278c-2.143-0.412-3.125-2.916-1.835-4.675l0.907-1.236l-1.958-1.958
			l-1.217,0.825c-1.806,1.224-4.272,0.148-4.604-2.008L45.115,33h-2.769l-0.359,1.865c-0.403,2.096-2.818,3.096-4.585,1.899
			l-1.572-1.065l-1.958,1.958l0.907,1.236c1.29,1.76,0.308,4.263-1.835,4.675L31.5,43.846v2.769l1.515,0.233
			c2.157,0.332,3.232,2.797,2.008,4.604l-0.825,1.217l1.958,1.958l1.236-0.907c1.76-1.29,4.263-0.308,4.675,1.835L42.346,57h2.769
			l0.164-1.066c0.339-2.204,2.896-3.263,4.694-1.944l0.869,0.638l1.958-1.958l-0.825-1.217c-1.224-1.806-0.148-4.272,2.008-4.604
			l1.515-0.233V43.846z"/>
		<g>
			<circle style="fill:#FFFFFF;" cx="43.5" cy="45" r="4"/>
			<path style="fill:#ECF0F1;" d="M43.5,50c-2.757,0-5-2.243-5-5s2.243-5,5-5s5,2.243,5,5S46.257,50,43.5,50z M43.5,42
				c-1.654,0-3,1.346-3,3s1.346,3,3,3s3-1.346,3-3S45.154,42,43.5,42z"/>
		</g>
	</g>
</g>
<g>
</g>
<g>
</g>
<g>
</g>
<g>
</g>
<g>
</g>
<g>
</g>
<g>
</g>
<g>
</g>
<g>
</g>
<g>
</g>
<g>
</g>
<g>
</g>
<g>
</g>
<g>
</g>
<g>
</g>
</svg>
