<?xml version="1.0" standalone="no"?><!DOCTYPE svg PUBLIC "-//W3C//DTD SVG 1.1//EN" "http://www.w3.org/Graphics/SVG/1.1/DTD/svg11.dtd"><svg t="1678758687270" class="icon" viewBox="0 0 1024 1024" version="1.1" xmlns="http://www.w3.org/2000/svg" p-id="2824" xmlns:xlink="http://www.w3.org/1999/xlink" width="200" height="200"><path d="M650.666667 644.266667c23.466667-12.8 51.2-21.333333 81.066666-21.333334 2.133333 0 4.266667-4.266667 2.133334-6.4-29.866667-27.733333-66.133333-49.066667-104.533334-66.133333h-2.133333c61.866667-44.8 102.4-117.333333 102.4-200.533333C729.6 213.333333 618.666667 102.4 482.133333 102.4S234.666667 213.333333 234.666667 349.866667c0 83.2 40.533333 155.733333 102.4 200.533333h-2.133334c-44.8 19.2-85.333333 46.933333-119.466666 81.066667-34.133333 34.133333-61.866667 74.666667-81.066667 119.466666-19.2 44.8-27.733333 89.6-29.866667 138.666667 0 4.266667 4.266667 8.533333 8.533334 8.533333h59.733333c4.266667 0 8.533333-4.266667 8.533333-8.533333 2.133333-76.8 32-149.333333 87.466667-204.8 55.466667-57.6 132.266667-87.466667 211.2-87.466667 57.6 0 110.933333 14.933333 157.866667 44.8 6.4 4.266667 8.533333 4.266667 12.8 2.133334z m-166.4-121.6c-44.8 0-89.6-17.066667-121.6-51.2-32-32-51.2-74.666667-51.2-121.6s17.066667-89.6 51.2-121.6 74.666667-51.2 121.6-51.2 89.6 17.066667 121.6 51.2c32 32 51.2 74.666667 51.2 121.6s-17.066667 89.6-51.2 121.6c-34.133333 34.133333-76.8 51.2-121.6 51.2z" p-id="2825" fill="#36AC3F"></path><path d="M923.733333 603.733333l-40.533333-40.533333c-2.133333-2.133333-10.666667-2.133333-14.933333 4.266667L635.733333 797.866667l-89.6-89.6c-2.133333-2.133333-6.4-2.133333-10.666666 2.133333l-40.533334 40.533333c-2.133333 2.133333-4.266667 8.533333-2.133333 10.666667l93.866667 93.866667 40.533333 40.533333c2.133333 2.133333 6.4 2.133333 10.666667-2.133333l40.533333-40.533334 241.066667-234.666666c4.266667-6.4 6.4-12.8 4.266666-14.933334z" p-id="2826" fill="#36AC3F"></path></svg>