<svg width="20" height="21" viewBox="0 0 20 21" fill="none" xmlns="http://www.w3.org/2000/svg">
<path d="M16.6832 12.4303C17.4672 11.1844 17.9282 9.72085 17.9282 8.15048C17.9282 3.65622 14.2179 0 9.65835 0C5.09711 0 1.38602 3.65622 1.38602 8.15048C1.38602 9.9544 1.99104 11.6175 3.00196 12.9692L0 18.1152L3.24819 18.353L5.09416 21L7.93757 16.1219C8.49372 16.2388 9.06808 16.3023 9.65845 16.3023C10.4628 16.3023 11.2385 16.1834 11.9745 15.9708L14.9068 21L16.7527 18.353L20 18.1153L16.6832 12.4303ZM6.90219 15.8298L5.01438 19.0661L3.82668 17.3618L1.73559 17.2086L3.71429 13.8152C3.73072 13.8324 3.75004 13.8455 3.76642 13.8626C3.96878 14.0651 4.17934 14.2594 4.40115 14.4397C4.45032 14.4791 4.50338 14.5133 4.55243 14.5516C4.73738 14.6945 4.92658 14.8316 5.12277 14.9596C5.1984 15.0088 5.27616 15.0512 5.35274 15.0975C5.54183 15.2112 5.73399 15.3191 5.93229 15.4178C5.99457 15.4501 6.05792 15.4794 6.12232 15.5085C6.35857 15.6193 6.60072 15.719 6.84807 15.8077C6.86639 15.8147 6.88386 15.8237 6.90219 15.8298ZM7.80567 15.0251C7.43577 14.9283 7.07698 14.8043 6.73261 14.6553C6.72634 14.6523 6.72126 14.6502 6.71618 14.6483C6.39626 14.5082 6.09066 14.3421 5.79734 14.1587C5.76363 14.1375 5.72784 14.1183 5.69498 14.0973C5.41713 13.918 5.15444 13.7156 4.90412 13.499C4.85083 13.4526 4.79764 13.4054 4.74552 13.3569C4.49924 13.1314 4.26417 12.8917 4.04849 12.6297C3.03971 11.4051 2.43262 9.84674 2.43262 8.15048C2.43262 4.22533 5.67371 1.03138 9.65844 1.03138C13.6415 1.03138 16.8815 4.22533 16.8815 8.15048C16.8815 9.65135 16.4063 11.0423 15.5987 12.1916C15.4179 12.4485 15.2177 12.6911 15.0039 12.9219C14.957 12.9733 14.912 13.0247 14.8639 13.074C14.6259 13.3167 14.3723 13.5444 14.1025 13.7518C14.0739 13.774 14.0442 13.7941 14.0156 13.8163C13.4238 14.2565 12.7655 14.6121 12.0623 14.8567C12.0267 14.8688 11.9919 14.8828 11.9561 14.8951L11.7773 14.9565C11.1067 15.1598 10.3953 15.2708 9.65844 15.2708C9.01702 15.2708 8.39727 15.1801 7.80567 15.0251ZM16.1743 17.3618L14.9866 19.0661L12.973 15.6132C13.2553 15.4913 13.528 15.3514 13.7927 15.1993C13.8265 15.18 13.8591 15.1598 13.892 15.1397C14.1158 15.0078 14.3314 14.8658 14.5399 14.7148C14.5961 14.6744 14.6513 14.6342 14.7055 14.5929C14.8854 14.456 15.0571 14.3119 15.2247 14.1607C15.2901 14.1024 15.3556 14.0469 15.4189 13.9875C15.5753 13.8374 15.7224 13.6794 15.8656 13.5182C15.9146 13.4638 15.9708 13.4154 16.0178 13.3591L18.2644 17.2086L16.1743 17.3618ZM12.9751 13.0731L12.3404 9.43083L15.0265 6.8532L11.3152 6.32135L9.6594 3.0085L7.99796 6.32135L4.28579 6.8532L6.97274 9.43083L6.33906 13.072L9.65834 11.3525L12.9751 13.0731ZM6.5363 7.57238L8.69298 7.26405L9.65739 5.33937L10.6202 7.26405L12.7758 7.57238L11.2161 9.07006L11.5849 11.1854L9.65845 10.1861L7.72899 11.1864L8.097 9.07006L6.5363 7.57238Z" fill="#60B964"/>
</svg>
