<svg id="Layer_1" data-name="Layer 1" xmlns="http://www.w3.org/2000/svg" viewBox="0 0 28 28"><defs><style>.cls-1{fill:#c72c48;}</style></defs><title>minio</title><path class="cls-1" d="M17.57,1.5s2.72,4.38,3.63,5.94a.11.11,0,0,1,0,.08.09.09,0,0,1-.1,0h0l-4.7-4.9Z"/><path class="cls-1" d="M9.56,17.48A16,16,0,0,1,12.75,13a17.73,17.73,0,0,1,1.6-1.41V15Zm-2.77,3.2,7.56-3.84v8.8l1.7,2.21V15.94l1-.53a5.13,5.13,0,0,0,2.27-6.89,5.23,5.23,0,0,0-.86-1.23L14.61,3.22a.85.85,0,0,1,0-1.21.86.86,0,0,1,1.22,0l.55.57L17.57,1.5C16.19-.29,14.49-.07,13.52.83a2.48,2.48,0,0,0-.1,3.5l3.93,4.1a3.52,3.52,0,0,1-.17,5,4.27,4.27,0,0,1-.6.45l-.53.28V8.56a17.8,17.8,0,0,0-9.26,12.1Z"/><path class="cls-1" d="M16.05,15.94v1.8l-1.7.86V16.81Z"/></svg>