<?xml version="1.0" encoding="UTF-8"?>
<svg width="120px" height="53px" viewBox="0 0 120 53" version="1.1" xmlns="http://www.w3.org/2000/svg" xmlns:xlink="http://www.w3.org/1999/xlink">
    <title>渠成备份</title>
    <defs>
        <radialGradient cx="50%" cy="50%" fx="50%" fy="50%" r="56.785528%" gradientTransform="translate(0.500000,0.500000),scale(1.000000,0.892297),rotate(28.296534),translate(-0.500000,-0.500000)" id="radialGradient-1">
            <stop stop-color="#0D9B17" offset="0%"></stop>
            <stop stop-color="#33BC59" offset="51.4231008%"></stop>
            <stop stop-color="#4AC80D" offset="100%"></stop>
        </radialGradient>
    </defs>
    <g id="页面-1" stroke="none" stroke-width="1" fill="none" fill-rule="evenodd">
        <g id="A_官网备份-3" transform="translate(-40.000000, -5.000000)" fill-rule="nonzero">
            <g id="渠成备份" transform="translate(40.000000, 5.000000)">
                <g id="编组" opacity="0.5" transform="translate(60.534457, 39.468738)" fill="#383B45">
                    <path d="M9.63888232,4.82033889 C9.60833516,2.80650555 8.37257379,1.01388874 6.4884191,0.296842017 C4.61189257,-0.412576548 2.37684268,0.182419668 1.11056869,1.73093546 C-0.170961627,3.29470757 -0.376921856,5.53738562 0.668135601,7.28423348 C1.71319306,9.03108135 3.74228272,9.90831936 5.7332316,9.549796 C7.99116596,9.1455037 9.60833516,7.08590141 9.63888232,4.82033889 C9.64647594,4.01175429 8.3878301,4.01175429 8.38020194,4.82033889 C8.35731747,6.29257312 7.44956684,7.66564131 6.04598602,8.16909965 C4.61952073,8.6878143 2.99472337,8.23775306 2.03357564,7.06301694 C1.10294053,5.91879345 0.996146336,4.2558553 1.75133384,2.9895813 C2.49889319,1.73856362 4.0092682,1.02914505 5.4509898,1.31138685 C7.14444057,1.63939758 8.35731747,3.10400365 8.38020194,4.82033889 C8.3878301,5.6289235 9.64647594,5.6289235 9.63888232,4.82033889 Z" id="路径"></path>
                    <path d="M27.1530954,7.64275684 C25.3604786,8.87851822 22.9042122,8.32166278 21.9049236,6.36885469 C20.997173,4.59912235 21.8362702,2.3564443 23.6365152,1.55548786 C24.795995,1.03677321 26.1232942,1.22747713 27.1530954,1.93689569 C27.8243732,2.40221324 28.449882,1.30375869 27.7862324,0.846069294 C25.4443883,-0.77109991 22.0574868,0.0527410055 20.7835846,2.62342979 C19.5935922,5.02629912 20.6157652,8.06230546 23.0949161,9.16076001 C24.6205474,9.83203779 26.405536,9.67947466 27.7862324,8.73358324 C28.4575102,8.27589384 27.8243732,7.18506745 27.1530954,7.64275684 L27.1530954,7.64275684 Z" id="路径"></path>
                    <path d="M5.92393551,7.650385 C6.43502201,8.16147149 6.9461085,8.67255799 7.45719499,9.18364448 C7.53347656,9.25992605 7.60212997,9.32857946 7.67841154,9.40486102 C7.91488439,9.64133388 8.34206116,9.65659019 8.57090586,9.40486102 C8.79975056,9.15313185 8.82263503,8.76409587 8.57090586,8.5123667 C8.05981937,8.0012802 7.54873287,7.49019371 7.03764638,6.97910722 C6.96136481,6.90282565 6.8927114,6.83417224 6.81642984,6.75789067 C6.57995698,6.52141782 6.15278021,6.50616151 5.92393551,6.75789067 C5.69509081,7.00961984 5.6798345,7.39865583 5.92393551,7.650385 L5.92393551,7.650385 Z" id="路径"></path>
                    <path d="M10.5923674,3.0429784 C10.5923674,3.84393485 10.5923674,4.65251945 10.5923674,5.45347589 C10.5923674,5.75860216 10.5847392,6.07135658 10.5923674,6.37648284 C10.5999955,7.16981113 10.8822373,7.90211417 11.400952,8.50473854 C12.5070347,9.79389701 14.4979836,9.90831936 15.8100265,8.87851822 C16.4126509,8.39794435 16.8474558,7.68852578 16.9618781,6.91808196 C17.0152752,6.54430229 17.0076471,6.17815077 17.0076471,5.8043711 C17.0076471,4.88136415 17.0076471,3.96598535 17.0076471,3.0429784 C17.0076471,2.2343938 15.7490012,2.22676564 15.7490012,3.0429784 C15.7490012,3.76765328 15.7490012,4.4847 15.7490012,5.20937488 C15.7490012,6.00270317 15.8557954,6.82654408 15.398106,7.49782187 C14.7497127,8.45134144 13.3156193,8.60390458 12.4765221,7.81057629 C12.0722297,7.42916846 11.8586414,6.93333828 11.8510132,6.37648284 C11.8510132,6.10186921 11.8510132,5.83488372 11.8510132,5.56027009 C11.8510132,4.72117286 11.8510132,3.88207563 11.8510132,3.0429784 C11.8510132,2.2343938 10.5923674,2.2343938 10.5923674,3.0429784 L10.5923674,3.0429784 Z" id="路径"></path>
                    <path d="M15.7490012,3.0429784 C15.7490012,4.7669418 15.7490012,6.49853335 15.7490012,8.22249675 C15.7490012,8.46659776 15.7490012,8.71069877 15.7490012,8.95479978 C15.7490012,9.76338438 17.0076471,9.77101254 17.0076471,8.95479978 C17.0076471,7.23083639 17.0076471,5.49924483 17.0076471,3.77528144 C17.0076471,3.53118042 17.0076471,3.28707941 17.0076471,3.0429784 C17.0076471,2.2343938 15.7490012,2.2343938 15.7490012,3.0429784 L15.7490012,3.0429784 Z" id="路径"></path>
                    <g transform="translate(44.804273, 2.426900)" id="路径">
                        <path d="M6.41565642,6.52789985 C6.41565642,5.72694341 6.41565642,4.9183588 6.41565642,4.11740236 C6.41565642,3.81227609 6.42328457,3.49952167 6.41565642,3.19439541 C6.40802826,2.40106712 6.12578647,1.66876408 5.60707182,1.06613971 C4.50098911,-0.223018757 2.51004023,-0.337441107 1.19799729,0.692360037 C0.595372916,1.1729339 0.160567988,1.88235247 0.0461456388,2.65279629 C-0.00725145753,3.02657596 0.000376699092,3.39272748 0.000376699092,3.76650716 C0.000376699092,4.68951411 0.000376699092,5.6048929 0.000376699092,6.52789985 C0.000376699092,7.33648445 1.25902254,7.34411261 1.25902254,6.52789985 C1.25902254,5.80322497 1.25902254,5.08617825 1.25902254,4.36150337 C1.25902254,3.56817508 1.15222835,2.74433417 1.60991775,2.07305639 C2.25831106,1.11953681 3.6924045,0.966973675 4.53150173,1.76030196 C4.93579403,2.14170979 5.14938242,2.63753998 5.15701057,3.19439541 C5.15701057,3.46900905 5.15701057,3.73599453 5.15701057,4.01060817 C5.15701057,4.8497054 5.15701057,5.68880262 5.15701057,6.52789985 C5.15701057,7.34411261 6.41565642,7.34411261 6.41565642,6.52789985 L6.41565642,6.52789985 Z"></path>
                        <path d="M1.2666507,6.52789985 C1.2666507,4.80393646 1.2666507,3.0723449 1.2666507,1.34838151 C1.2666507,1.10428049 1.2666507,0.860179483 1.2666507,0.616078471 C1.2666507,-0.192506131 0.00800485571,-0.200134288 0.00800485571,0.616078471 C0.00800485571,2.34004187 0.00800485571,4.07163342 0.00800485571,5.79559682 C0.00800485571,6.03969783 0.00800485571,6.28379884 0.00800485571,6.52789985 C0.000376699092,7.34411261 1.2666507,7.34411261 1.2666507,6.52789985 L1.2666507,6.52789985 Z"></path>
                    </g>
                    <g transform="translate(29.608985, 2.426900)" id="路径">
                        <path d="M6.41565642,6.52789985 C6.41565642,5.72694341 6.41565642,4.9183588 6.41565642,4.11740236 C6.41565642,3.81227609 6.42328457,3.49952167 6.41565642,3.19439541 C6.40802826,2.40106712 6.12578647,1.66876408 5.60707182,1.06613971 C4.50098911,-0.223018757 2.51004023,-0.337441107 1.19799729,0.692360037 C0.595372916,1.1729339 0.160567988,1.88235247 0.0461456388,2.65279629 C-0.00725145753,3.02657596 0.000376699092,3.39272748 0.000376699092,3.76650716 C0.000376699092,4.68951411 0.000376699092,5.6048929 0.000376699092,6.52789985 C0.000376699092,7.33648445 1.25902254,7.34411261 1.25902254,6.52789985 C1.25902254,5.80322497 1.25902254,5.08617825 1.25902254,4.36150337 C1.25902254,3.56817508 1.15222835,2.74433417 1.60991775,2.07305639 C2.25831106,1.11953681 3.6924045,0.966973675 4.53150173,1.76030196 C4.93579403,2.14170979 5.14938242,2.63753998 5.15701057,3.19439541 C5.15701057,3.46900905 5.15701057,3.73599453 5.15701057,4.01060817 C5.15701057,4.8497054 5.15701057,5.68880262 5.15701057,6.52789985 C5.15701057,7.34411261 6.41565642,7.34411261 6.41565642,6.52789985 L6.41565642,6.52789985 Z"></path>
                    </g>
                    <path d="M30.8756358,8.95479978 C30.8756358,6.52141782 30.8756358,4.09566401 30.8756358,1.66228205 C30.8756358,1.319015 30.8756358,0.975747957 30.8756358,0.632480909 C30.8756358,-0.176103693 29.61699,-0.18373185 29.61699,0.632480909 C29.61699,3.06586287 29.61699,5.49161668 29.61699,7.92499864 C29.61699,8.26826569 29.61699,8.61153273 29.61699,8.95479978 C29.6093618,9.77101254 30.8756358,9.77101254 30.8756358,8.95479978 L30.8756358,8.95479978 Z" id="路径"></path>
                    <path d="M37.7791176,6.58244307 C39.4344275,6.58244307 41.0897375,6.58244307 42.7526757,6.58244307 C42.9891485,6.58244307 43.2256214,6.58244307 43.4620942,6.58244307 C43.7977331,6.58244307 44.0952312,6.29257312 44.0952312,5.94930607 C44.0799749,4.62963498 43.3781845,3.38624545 42.2187047,2.73785214 C41.0592249,2.08945882 39.5793625,2.10471514 38.4503953,2.82176186 C37.3443126,3.52355227 36.6425222,4.80508258 36.7188038,6.12475368 C36.7950854,7.41391214 37.5350165,8.62678905 38.6944964,9.22178526 C40.1133335,9.94646014 41.98986,9.69473097 43.1722243,8.62678905 C43.7748487,8.07756177 42.8823543,7.1926956 42.27973,7.73429472 C41.5703114,8.37505988 40.3879471,8.55813564 39.5107091,8.21486859 C38.7173808,7.90974232 38.1376409,7.16981113 38.0003341,6.3307139 C37.6952078,4.49232816 39.6175033,2.99720946 41.3338385,3.70662803 C42.2415892,4.0804077 42.8213291,4.98053018 42.8365854,5.95693423 C43.0501738,5.74334584 43.256134,5.53738562 43.4697224,5.32379723 C41.8144124,5.32379723 40.1591024,5.32379723 38.4961643,5.32379723 C38.2596914,5.32379723 38.0232186,5.32379723 37.7867457,5.32379723 C36.970533,5.32379723 36.970533,6.58244307 37.7791176,6.58244307 L37.7791176,6.58244307 Z" id="路径"></path>
                    <path d="M59.4354542,5.95693423 C59.4125697,4.40841844 58.4590502,3.05060656 57.0173286,2.50137928 C55.5984914,1.96740832 53.9050407,2.42509771 52.9438929,3.59220568 C51.9598607,4.78219811 51.7920413,6.49853335 52.5929977,7.83346076 C53.3939542,9.16838817 54.94247,9.83203779 56.4681013,9.55742415 C58.1920647,9.25229789 59.4125697,7.66564131 59.4354542,5.95693423 C59.4430824,5.14834963 58.1844365,5.14834963 58.1768084,5.95693423 C58.1615521,6.94859459 57.5512995,7.8792297 56.6130363,8.22249675 C55.6290041,8.57339195 54.5229213,8.283522 53.8668999,7.45968108 C53.2490192,6.68160911 53.1803658,5.56789824 53.6914523,4.7135447 C54.1949106,3.86681932 55.2094554,3.39387361 56.1782313,3.56932121 C57.3377111,3.78290959 58.1615521,4.78219811 58.1768084,5.94930607 C58.1920647,6.76551883 59.4507105,6.76551883 59.4354542,5.95693423 Z" id="路径"></path>
                    <path d="M52.5853696,11.2661312 C54.0042067,13.5164374 57.3071985,13.6690006 58.8252017,11.4263225 C59.61853,10.2592146 59.4507105,8.85563375 59.4507105,7.52070634 C59.4507105,5.9798187 59.4507105,4.43130291 59.4507105,2.89041527 C59.4507105,2.08183067 58.1920647,2.07420251 58.1920647,2.89041527 C58.1920647,4.1338048 58.1920647,5.37719433 58.1920647,6.62058386 C58.1920647,7.23846454 58.1920647,7.84871707 58.1920647,8.46659776 C58.1920647,9.03108135 58.2454618,9.61844941 58.062386,10.1676767 C57.4063645,12.1204848 54.7441379,12.3340732 53.6685678,10.6329942 C53.241391,9.94646014 52.1505646,10.571969 52.5853696,11.2661312 L52.5853696,11.2661312 Z" id="路径"></path>
                </g>
                <g id="编组" transform="translate(59.533933, 5.862238)" fill="#383B45">
                    <path d="M55.9277373,3.13135829 C56.6829248,3.13135829 57.4381123,3.13135829 58.1932998,3.13135829 C58.300094,3.13135829 58.4068882,3.13135829 58.5136824,3.13135829 C58.8035523,3.13135829 59.1163068,3.00167963 59.322267,2.7957194 C59.5205991,2.59738733 59.6731622,2.26937659 59.6579059,1.9871348 C59.6273933,1.36925411 59.1544476,0.842911307 58.5136824,0.842911307 C57.7584949,0.842911307 57.0033074,0.842911307 56.2481199,0.842911307 C56.1413257,0.842911307 56.0345315,0.842911307 55.9277373,0.842911307 C55.6378674,0.842911307 55.3251129,0.972589969 55.1191527,1.1785502 C54.9208206,1.37688227 54.7682575,1.704893 54.7835138,1.9871348 C54.8140264,2.60501549 55.2869721,3.13135829 55.9277373,3.13135829 L55.9277373,3.13135829 Z" id="路径"></path>
                    <path d="M4.36139855,24.7953231 C3.65197998,25.5047417 2.94256142,26.2141602 2.23314285,26.9235788 C2.13397681,27.0227448 2.03481078,27.1219109 1.92801659,27.2287051 C1.72205636,27.4346653 1.59237769,27.7474197 1.59237769,28.0372897 C1.59237769,28.3195315 1.7144282,28.6551703 1.92801659,28.8458743 C2.14923313,29.0442063 2.43147492,29.1967695 2.73660119,29.1815132 C3.04172745,29.1662568 3.32396925,29.0670908 3.54518579,28.8458743 C4.25460436,28.1364557 4.96402292,27.4270371 5.67344149,26.7176186 C5.77260752,26.6184525 5.87177356,26.5192865 5.97856775,26.4124923 C6.18452798,26.2065321 6.31420664,25.8937776 6.31420664,25.6039077 C6.31420664,25.3216659 6.19215614,24.986027 5.97856775,24.7953231 C5.75735121,24.596991 5.47510941,24.4444279 5.16998315,24.4596842 C4.86485688,24.4749405 4.58261509,24.5741066 4.36139855,24.7953231 L4.36139855,24.7953231 Z" id="路径"></path>
                    <path d="M21.6696859,26.4124923 C22.3791045,27.1219109 23.0885231,27.8313294 23.7979416,28.540748 C23.8971077,28.639914 23.9962737,28.7390801 24.1030679,28.8458743 C24.3090281,29.0518345 24.6217825,29.1815132 24.9116525,29.1815132 C25.1938943,29.1815132 25.5295332,29.0594626 25.7202371,28.8458743 C25.9185692,28.6246577 26.0711323,28.3424159 26.055876,28.0372897 C26.0406197,27.7321634 25.9414536,27.4499216 25.7202371,27.2287051 C25.0108185,26.5192865 24.3014,25.8098679 23.5919814,25.1004494 C23.4928154,25.0012833 23.3936493,24.9021173 23.2868551,24.7953231 C23.0808949,24.5893629 22.7681405,24.4596842 22.4782705,24.4596842 C22.1960287,24.4596842 21.8603898,24.5817347 21.6696859,24.7953231 C21.4713538,25.0165396 21.3187907,25.2987814 21.334047,25.6039077 C21.3493033,25.909034 21.4484694,26.1912758 21.6696859,26.4124923 L21.6696859,26.4124923 Z" id="路径"></path>
                    <path d="M2.49250018,2.70418152 C3.12563718,3.33731852 3.76640233,3.97808368 4.39953933,4.61122068 C4.6512685,4.86294985 5.01742002,5.01551298 5.36831522,5.01551298 C5.55901914,5.02314113 5.73446674,4.98500035 5.89465803,4.89346247 C6.06247747,4.84006538 6.21504061,4.74089934 6.33709111,4.61122068 C6.57356397,4.35186335 6.75663973,4.0085963 6.74138341,3.64244479 C6.7261271,3.27629327 6.60407659,2.93302622 6.33709111,2.6736689 C5.70395411,2.0405319 5.06318896,1.39976674 4.43005196,0.76662974 C4.17832279,0.514900572 3.81217127,0.362337439 3.46127607,0.362337439 C3.27057215,0.354709283 3.09512455,0.392850066 2.93493326,0.484387945 C2.76711381,0.537785042 2.61455068,0.636951078 2.49250018,0.76662974 C2.25602732,1.02598707 2.07295156,1.36925411 2.08820787,1.73540563 C2.10346419,2.09392899 2.22551469,2.43719604 2.49250018,2.70418152 L2.49250018,2.70418152 Z" id="路径"></path>
                    <path d="M1.10417567,23.231551 C8.31278368,23.231551 15.5290198,23.231551 22.7376278,23.231551 C23.7598008,23.231551 24.789602,23.231551 25.811775,23.231551 C27.2840092,23.231551 27.2840092,20.943104 25.811775,20.943104 C18.603167,20.943104 11.3869308,20.943104 4.17832279,20.943104 C3.1561498,20.943104 2.12634866,20.943104 1.10417567,20.943104 C-0.368058557,20.943104 -0.368058557,23.231551 1.10417567,23.231551 L1.10417567,23.231551 Z" id="路径"></path>
                    <g transform="translate(9.085135, 5.404549)" id="路径">
                        <path d="M16.2308102,0 C11.8141076,0 7.39740488,0 2.9807022,0 C2.35519336,0 1.72968451,0 1.10417567,0 C-0.368058557,0 -0.368058557,2.28844699 1.10417567,2.28844699 C5.52087835,2.28844699 9.93758104,2.28844699 14.3542837,2.28844699 C14.9797926,2.28844699 15.6053014,2.28844699 16.2308102,2.28844699 C17.7030445,2.28844699 17.7030445,0 16.2308102,0 L16.2308102,0 Z"></path>
                        <path d="M16.2308102,5.12612125 C11.8141076,5.12612125 7.39740488,5.12612125 2.9807022,5.12612125 C2.35519336,5.12612125 1.72968451,5.12612125 1.10417567,5.12612125 C-0.368058557,5.12612125 -0.368058557,7.41456824 1.10417567,7.41456824 C5.52087835,7.41456824 9.93758104,7.41456824 14.3542837,7.41456824 C14.9797926,7.41456824 15.6053014,7.41456824 16.2308102,7.41456824 C17.7030445,7.41456824 17.7030445,5.12612125 16.2308102,5.12612125 L16.2308102,5.12612125 Z"></path>
                        <path d="M14.8577421,1.41120897 C14.8577421,2.75376454 14.8577421,4.09632011 14.8577421,5.43887567 C14.8577421,5.62957959 14.8577421,5.8202835 14.8577421,6.01098742 C14.8577421,6.72803414 15.4908791,7.41456824 16.2308102,7.38405561 C16.9783696,7.35354298 17.6038784,6.78143124 17.6038784,6.01098742 C17.6038784,4.66843185 17.6038784,3.32587629 17.6038784,1.98332072 C17.6038784,1.79261681 17.6038784,1.60191289 17.6038784,1.41120897 C17.6038784,0.694162252 16.9707414,0.00762815662 16.2308102,0.0381407831 C15.4832509,0.0686534096 14.8577421,0.640765156 14.8577421,1.41120897 L14.8577421,1.41120897 Z"></path>
                    </g>
                    <g transform="translate(8.472975, 0.583554)" id="路径">
                        <path d="M1.71633524,2.28844699 C6.2779729,2.28844699 10.8472387,2.28844699 15.4088764,2.28844699 C16.0572697,2.28844699 16.6980348,2.28844699 17.3464282,2.28844699 C18.8186624,2.28844699 18.8186624,0 17.3464282,0 C12.7847905,0 8.21552468,0 3.65388702,0 C3.00549371,0 2.36472855,0 1.71633524,0 C0.244101012,0 0.244101012,2.28844699 1.71633524,2.28844699 L1.71633524,2.28844699 Z"></path>
                        <path d="M1.71633524,17.0565582 C6.2779729,17.0565582 10.8472387,17.0565582 15.4088764,17.0565582 C16.0572697,17.0565582 16.6980348,17.0565582 17.3464282,17.0565582 C18.8186624,17.0565582 18.8186624,14.7681112 17.3464282,14.7681112 C12.7847905,14.7681112 8.21552468,14.7681112 3.65388702,14.7681112 C3.00549371,14.7681112 2.36472855,14.7681112 1.71633524,14.7681112 C0.244101012,14.7681112 0.244101012,17.0565582 1.71633524,17.0565582 L1.71633524,17.0565582 Z"></path>
                        <path d="M0,1.67819446 C0,5.67534853 0,9.68013075 0,13.6772848 C0,14.2417684 0,14.806252 0,15.3707356 C0,17.582901 3.43267048,17.582901 3.43267048,15.3707356 C3.43267048,11.3735815 3.43267048,7.3687993 3.43267048,3.37164523 C3.43267048,2.80716164 3.43267048,2.24267805 3.43267048,1.67819446 C3.43267048,-0.526342807 0,-0.533970963 0,1.67819446 L0,1.67819446 Z"></path>
                    </g>
                    <path d="M10.0214908,20.7066311 C10.0214908,22.98745 10.0214908,25.2682688 10.0214908,27.5490876 C10.0214908,27.8694702 10.0214908,28.1974809 10.0214908,28.5178635 C10.0214908,29.417986 10.8071909,30.2723395 11.737826,30.2341988 C12.6684611,30.196058 13.4541612,29.4790113 13.4541612,28.5178635 C13.4541612,26.2370447 13.4541612,23.9562259 13.4541612,21.675407 C13.4541612,21.3550245 13.4541612,21.0270137 13.4541612,20.7066311 C13.4541612,19.8065087 12.6684611,18.9521551 11.737826,18.9902959 C10.814819,19.0284367 10.0214908,19.7378553 10.0214908,20.7066311 L10.0214908,20.7066311 Z" id="路径"></path>
                    <g transform="translate(31.389434, 4.245069)" id="路径">
                        <path d="M4.50676406,2.28844699 C11.1051195,2.28844699 17.6958469,2.28844699 24.2942023,2.28844699 C25.2172093,2.28844699 26.1402162,2.28844699 27.0708513,2.28844699 C28.5430856,2.28844699 28.5430856,0 27.0708513,0 C20.4724959,0 13.8817686,0 7.28341307,0 C6.36040612,0 5.43739917,0 4.50676406,0 C3.03452984,0 3.03452984,2.28844699 4.50676406,2.28844699 L4.50676406,2.28844699 Z"></path>
                        <path d="M2.64549385,1.74684787 C2.64549385,5.6448359 2.84382592,9.58859287 2.56921228,13.4789527 C2.31748311,17.0565582 1.4402451,20.5731384 0.0900613815,23.8913865 C-0.260833823,24.7533682 0.471469213,25.7755412 1.28768197,26.0043859 C2.27171417,26.2713714 3.04978615,25.668747 3.40068135,24.8067653 C4.82714664,21.2978133 5.68150018,17.5905292 5.97899829,13.8069635 C6.29175271,9.81743757 6.07816433,5.75163009 6.07816433,1.74684787 C6.07816433,-0.465317554 2.64549385,-0.465317554 2.64549385,1.74684787 L2.64549385,1.74684787 Z"></path>
                    </g>
                    <g transform="translate(34.349589, 13.299691)" id="路径">
                        <path d="M10.4105267,0.0686534096 C7.69490299,0.0686534096 4.97165108,0.0686534096 2.25602732,0.0686534096 C1.87461949,0.0686534096 1.4855835,0.0686534096 1.10417567,0.0686534096 C-0.368058557,0.0686534096 -0.368058557,2.3571004 1.10417567,2.3571004 C3.81979943,2.3571004 6.54305134,2.3571004 9.2586751,2.3571004 C9.64008293,2.3571004 10.0291189,2.3571004 10.4105267,2.3571004 C11.882761,2.3571004 11.8903891,0.0686534096 10.4105267,0.0686534096 L10.4105267,0.0686534096 Z"></path>
                        <path d="M8.77810123,1.71633524 C8.77810123,5.25579991 8.77810123,8.80289274 8.77810123,12.3423574 C8.77810123,12.8458157 8.77810123,13.3416459 8.77810123,13.8451043 C8.77810123,14.7757394 9.56380136,15.5614395 10.4944365,15.5614395 C11.4250716,15.5614395 12.2107717,14.7757394 12.2107717,13.8451043 C12.2107717,10.3056396 12.2107717,6.75854677 12.2107717,3.21908209 C12.2107717,2.71562376 12.2107717,2.21979358 12.2107717,1.71633524 C12.2107717,0.785700132 11.4250716,0 10.4944365,0 C9.56380136,0 8.77810123,0.785700132 8.77810123,1.71633524 L8.77810123,1.71633524 Z"></path>
                    </g>
                    <path d="M50.1532227,1.65912406 C50.1532227,4.96211588 50.1532227,8.2651077 50.1532227,11.5604714 C50.1532227,15.7254449 49.7489304,20.0124689 51.7017385,23.8494317 C52.891731,26.1836476 54.8597954,27.9152392 56.690553,29.7231123 C58.2695814,31.2716281 60.6953352,28.8458743 59.1163068,27.2973585 C57.7508667,25.9548029 56.1947228,24.6580163 55.1725498,23.0255908 C54.0054418,21.1490642 53.5782651,19.0970901 53.5782651,16.9154373 C53.5782651,13.1089872 53.5782651,9.29490884 53.5782651,5.48845869 C53.5782651,4.21455653 53.5782651,2.93302622 53.5782651,1.65912406 C53.5858932,-0.553041355 50.1532227,-0.553041355 50.1532227,1.65912406 L50.1532227,1.65912406 Z" id="路径"></path>
                    <path d="M56.3854267,13.101359 C54.6385788,15.6110225 52.891731,18.1206861 51.1372549,20.6227214 C50.8855258,20.9812448 50.6337966,21.3397681 50.3896956,21.6982915 C49.8709809,22.4382227 50.2295043,23.6358433 51.0075763,24.0477637 C51.8848143,24.5130813 52.8078212,24.2232113 53.3570485,23.4298831 C55.1038964,20.9202195 56.8507443,18.410556 58.6052203,15.9085206 C58.8569494,15.5499973 59.1086786,15.1914739 59.3527796,14.8329505 C59.8714943,14.0930194 59.5129709,12.8953988 58.7348989,12.4834783 C57.8576609,12.0257889 56.934654,12.3156589 56.3854267,13.101359 L56.3854267,13.101359 Z" id="路径"></path>
                </g>
                <path d="M65.4591036,22.9226106 C65.8023707,22.2971018 65.7718581,21.5724269 65.4438473,21.0003152 C65.4514755,21.0003152 65.4591036,21.0003152 65.4667318,21.0003152 C65.18449,20.5883947 64.8641074,20.0086548 64.6276346,19.2763518 C64.6276346,19.2687236 64.6276346,19.2687236 64.6200064,19.2610955 C64.3759054,18.4906516 64.3606491,17.6668107 64.5666093,16.8887388 C64.650519,16.5759843 64.7573132,16.2479736 64.8869919,15.9123347 C65.0319269,15.538555 65.18449,15.2105443 65.3446813,14.9130462 C65.3523094,14.8901617 65.3675658,14.8749054 65.3751939,14.8520209 C65.3751939,14.8520209 65.3828221,14.8443928 65.3828221,14.8443928 C65.3828221,14.8443928 65.3828221,14.8443928 65.3828221,14.8443928 C65.6345512,14.272281 65.6192949,13.5933751 65.2683997,13.0136352 C64.7039161,12.0830001 63.4910392,11.785502 62.552776,12.3499856 C61.6450253,12.8992128 61.3398991,14.0663208 61.8433574,14.9893278 C61.8433574,14.9893278 61.8433574,14.9893278 61.8433574,14.9893278 C61.8509856,14.9969559 61.8586137,15.0122122 61.8662419,15.0198404 C61.87387,15.0350967 61.8814982,15.050353 61.8891263,15.0656093 C61.9043827,15.0884938 61.919639,15.1113783 61.9425234,15.1418909 C62.2018808,15.5461832 62.4764944,16.072526 62.6900828,16.7209193 C62.6900828,16.7285475 62.6900828,16.7285475 62.6977109,16.7361756 C62.9494401,17.5066194 62.9646964,18.3380885 62.751108,19.1237886 C62.6671983,19.4289149 62.5604041,19.7569256 62.4307255,20.0925645 C62.2781623,20.4892287 62.1027147,20.847752 61.9348953,21.1681346 C61.9348953,21.1681346 61.9425234,21.1681346 61.9425234,21.1681346 C61.5077185,22.0987697 61.8586137,23.2277369 62.7816207,23.7311952 C63.7351402,24.2270254 64.940389,23.8761302 65.4591036,22.9226106 Z" id="路径" fill="#383B45"></path>
                <path d="M46.2590334,34.6623437 C45.8394848,33.4570949 45.1148099,32.7324201 44.9469905,32.5722288 C44.7410303,32.3738967 44.2528282,31.9390918 43.4976407,31.6034529 C42.5898901,31.1991606 41.7965618,31.1610198 41.5753453,31.1533916 C39.5843964,31.0465974 36.3119172,30.8330091 33.9777013,29.856605 C30.4992618,28.3919989 28.4320314,24.8983032 28.1421615,24.1888846 C28.1116488,24.1126031 27.974342,23.7540797 27.6997284,23.3269029 C27.6081905,23.1895961 27.2878079,22.7013941 26.7233243,22.2131921 C26.463967,21.9843474 25.7011513,21.3435822 24.5569278,21.0460841 C22.8634771,20.6112792 21.4522681,21.2291599 21.15477,21.3588385 C19.4842037,22.1292824 18.13402,23.8761302 18.0729947,25.9738733 C18.0195976,27.7436056 18.8815793,29.2997496 20.0486873,30.2227565 C21.1013729,31.0618538 22.3523906,31.267814 22.5049537,31.2906985 C22.9168742,31.3593519 23.2220004,31.3593519 23.3059102,31.3593519 C24.7628881,31.3746082 30.3085579,33.0375463 34.7252606,36.9126499 C32.8334778,38.9112269 30.4306084,40.4139738 27.7226128,41.1996739 C26.4792233,41.5581973 25.3960251,41.7031322 24.7018628,41.7641575 C24.5950686,41.7717857 23.0465528,41.9014643 21.4675244,41.7107604 C18.7061317,41.3827497 14.434364,39.9105154 11.2991916,36.187975 C10.7575925,35.5472099 9.8803545,34.38773 9.11753884,32.7629327 C8.82766889,32.1374238 7.64530461,29.4904535 7.65293277,26.1416927 C7.66818908,19.9094888 11.7950218,14.7223423 15.3497428,12.6398555 C17.1271033,11.6024262 19.598626,10.8548669 20.9488098,10.6412785 C21.15477,10.6107659 21.3607302,10.5802532 21.5514341,10.5649969 C21.3531021,10.5878814 21.1471418,10.6107659 20.9488098,10.6412785 C21.498037,10.5726251 22.0243798,10.5268561 22.5278382,10.4963435 C22.6727732,10.4810872 22.8177081,10.4810872 22.9626431,10.473459 C23.7407151,10.4658309 24.4425055,10.5039717 24.5187871,10.5039717 C25.8918552,10.6031377 34.305712,13.5018372 36.6399279,17.9795652 C36.7619784,18.216038 37.0594765,18.8262905 37.6849854,19.4365431 C39.126707,20.847752 40.9650927,20.9621744 41.125284,20.9698026 C43.3221931,21.0765967 44.7639147,19.7340412 44.9927594,19.5128246 C45.1834633,19.3297489 46.7548636,17.7659768 46.5870442,15.3631074 C46.5641597,15.050353 46.4192247,13.3797867 45.0537847,12.0219748 C44.8630808,11.8312709 43.9629583,10.9692892 42.536493,10.6336503 C42.0406628,10.519228 41.659255,10.5115998 41.4456666,10.5039717 C39.5767682,10.4505746 37.715498,10.3971775 36.594159,10.1988454 C33.8251381,9.71827153 31.8494456,7.75783528 31.1705396,7.0331604 C30.2093919,6.01098742 29.4999733,5.08035231 29.4999733,5.08035231 C28.6151072,3.798822 28.5540819,3.18094131 27.585306,2.05960229 C27.1352448,1.54088764 26.7233243,1.06794193 26.0062776,0.663649626 C25.0069891,0.0991660361 24.030585,0 23.4813578,0 C23.0770655,0 22.4363003,0.0457689397 21.7039973,0.305126265 C21.3607302,0.427176771 20.2546475,0.861981698 19.3774095,1.96043625 C19.0417706,2.37998487 18.8739512,2.73088007 18.767157,2.9368403 C17.889919,4.6608037 16.5931323,6.14829424 16.1506992,6.62123995 C14.2284038,8.68847039 11.7416247,9.48179868 11.3602169,9.58859287 C9.65913796,10.0691667 8.97260386,9.72589969 4.96019348,10.4200619 C3.90750787,10.6031377 3.61000976,10.6870474 3.25911455,10.8472387 C1.51226669,11.6481952 0.215480063,13.5704906 0.139198497,15.4699016 C0.101057714,16.5225872 0.444324762,17.4303379 0.467209232,17.483735 C0.551118955,17.7049515 0.657913147,17.9185399 1.02406467,18.5440487 C1.46649775,19.2992363 1.69534245,19.6806441 2.22168525,20.4434597 C3.33539612,22.0758853 3.85411077,25.8213102 3.03789801,28.8268039 C2.83956594,29.5438506 2.58783677,30.2151284 2.15303184,31.3288392 C1.89367452,32.000117 1.62668904,32.633254 1.14611517,33.3655571 C0.978295725,33.6172862 0.894386003,33.7240804 0.802848123,33.8461309 C-0.27272196,35.3717622 0.0324043044,37.1796354 0.0629169309,37.4008519 C0.101057714,37.6754655 0.20022375,38.1636676 0.451952919,38.7281512 C0.566375268,38.9798803 1.10034623,40.131732 2.30559498,40.9479447 C3.26674271,41.5963381 4.22026229,41.7336449 4.63218275,41.8022983 C10.4219536,42.8015868 13.7554581,43.4042112 15.5709593,45.2120843 C16.6617857,46.3029107 17.3330635,47.241174 17.3330635,47.241174 C17.9967131,48.2480906 18.088251,48.7896897 18.9044638,49.8423754 C19.3316406,50.3916026 19.6672794,50.8264076 20.2393912,51.238328 C21.6582283,52.260501 23.2296286,52.2299884 23.4889859,52.2223602 C25.2816027,52.161335 26.5707612,51.1925591 27.1276166,50.5899347 C27.4174866,50.2771803 27.6615876,49.9034006 27.6615876,49.9034006 C28.1345333,49.1863539 28.3023527,48.5379606 28.363378,48.3548848 C28.6761324,47.3250837 29.6143957,46.4097049 30.5602871,45.4943261 C31.2697057,44.807792 33.138604,42.9999189 35.9457657,42.3667819 C38.4096603,41.8099264 39.8056129,42.5651139 42.8034785,41.4208904 C43.024695,41.3369807 43.2153989,41.253071 43.3832184,41.1844176 C43.512897,41.1386487 43.5891786,41.1005079 43.6120631,41.0852516 C43.8714204,40.9632011 45.7860877,40.0096815 46.4039684,37.8051442 C46.823517,36.33291 46.4039684,35.0742641 46.2590334,34.6623437 Z M21.8489322,10.5421124 C22.1921993,10.5115998 22.4363003,10.4963435 22.4363003,10.4963435 C22.2379682,10.5039717 22.0472643,10.519228 21.8489322,10.5421124 Z" id="形状" fill="url(#radialGradient-1)"></path>
            </g>
        </g>
    </g>
</svg>