<?xml version="1.0" encoding="UTF-8"?>
<svg width="47px" height="53px" viewBox="0 0 47 53" version="1.1" xmlns="http://www.w3.org/2000/svg" xmlns:xlink="http://www.w3.org/1999/xlink">
    <title>渠成备份 2</title>
    <defs>
        <radialGradient cx="50%" cy="50%" fx="50%" fy="50%" r="56.785528%" gradientTransform="translate(0.500000,0.500000),scale(1.000000,0.892297),rotate(28.296534),translate(-0.500000,-0.500000)" id="radialGradient-1">
            <stop stop-color="#0D9B17" offset="0%"></stop>
            <stop stop-color="#33BC59" offset="51.4231008%"></stop>
            <stop stop-color="#4AC80D" offset="100%"></stop>
        </radialGradient>
    </defs>
    <g id="页面-1" stroke="none" stroke-width="1" fill="none" fill-rule="evenodd">
        <g id="渠成备份-2" transform="translate(-0.000000, 0.000000)" fill="url(#radialGradient-1)" fill-rule="nonzero">
            <path d="M46.2590334,34.6623437 C45.8394848,33.4570949 45.1148099,32.7324201 44.9469905,32.5722288 C44.7410303,32.3738967 44.2528282,31.9390918 43.4976407,31.6034529 C42.5898901,31.1991606 41.7965618,31.1610198 41.5753453,31.1533916 C39.5843964,31.0465974 36.3119172,30.8330091 33.9777013,29.856605 C30.4992618,28.3919989 28.4320314,24.8983032 28.1421615,24.1888846 C28.1116488,24.1126031 27.974342,23.7540797 27.6997284,23.3269029 C27.6081905,23.1895961 27.2878079,22.7013941 26.7233243,22.2131921 C26.463967,21.9843474 25.7011513,21.3435822 24.5569278,21.0460841 C22.8634771,20.6112792 21.4522681,21.2291599 21.15477,21.3588385 C19.4842037,22.1292824 18.13402,23.8761302 18.0729947,25.9738733 C18.0195976,27.7436056 18.8815793,29.2997496 20.0486873,30.2227565 C21.1013729,31.0618538 22.3523906,31.267814 22.5049537,31.2906985 C22.9168742,31.3593519 23.2220004,31.3593519 23.3059102,31.3593519 C24.7628881,31.3746082 30.3085579,33.0375463 34.7252606,36.9126499 C32.8334778,38.9112269 30.4306084,40.4139738 27.7226128,41.1996739 C26.4792233,41.5581973 25.3960251,41.7031322 24.7018628,41.7641575 C24.5950686,41.7717857 23.0465528,41.9014643 21.4675244,41.7107604 C18.7061317,41.3827497 14.434364,39.9105154 11.2991916,36.187975 C10.7575925,35.5472099 9.8803545,34.38773 9.11753884,32.7629327 C8.82766889,32.1374238 7.64530461,29.4904535 7.65293277,26.1416927 C7.66818908,19.9094888 11.7950218,14.7223423 15.3497428,12.6398555 C17.1271033,11.6024262 19.598626,10.8548669 20.9488098,10.6412785 C21.15477,10.6107659 21.3607302,10.5802532 21.5514341,10.5649969 C21.3531021,10.5878814 21.1471418,10.6107659 20.9488098,10.6412785 C21.498037,10.5726251 22.0243798,10.5268561 22.5278382,10.4963435 C22.6727732,10.4810872 22.8177081,10.4810872 22.9626431,10.473459 C23.7407151,10.4658309 24.4425055,10.5039717 24.5187871,10.5039717 C25.8918552,10.6031377 34.305712,13.5018372 36.6399279,17.9795652 C36.7619784,18.216038 37.0594765,18.8262905 37.6849854,19.4365431 C39.126707,20.847752 40.9650927,20.9621744 41.125284,20.9698026 C43.3221931,21.0765967 44.7639147,19.7340412 44.9927594,19.5128246 C45.1834633,19.3297489 46.7548636,17.7659768 46.5870442,15.3631074 C46.5641597,15.050353 46.4192247,13.3797867 45.0537847,12.0219748 C44.8630808,11.8312709 43.9629583,10.9692892 42.536493,10.6336503 C42.0406628,10.519228 41.659255,10.5115998 41.4456666,10.5039717 C39.5767682,10.4505746 37.715498,10.3971775 36.594159,10.1988454 C33.8251381,9.71827153 31.8494456,7.75783528 31.1705396,7.0331604 C30.2093919,6.01098742 29.4999733,5.08035231 29.4999733,5.08035231 C28.6151072,3.798822 28.5540819,3.18094131 27.585306,2.05960229 C27.1352448,1.54088764 26.7233243,1.06794193 26.0062776,0.663649626 C25.0069891,0.0991660361 24.030585,0 23.4813578,0 C23.0770655,0 22.4363003,0.0457689397 21.7039973,0.305126265 C21.3607302,0.427176771 20.2546475,0.861981698 19.3774095,1.96043625 C19.0417706,2.37998487 18.8739512,2.73088007 18.767157,2.9368403 C17.889919,4.6608037 16.5931323,6.14829424 16.1506992,6.62123995 C14.2284038,8.68847039 11.7416247,9.48179868 11.3602169,9.58859287 C9.65913796,10.0691667 8.97260386,9.72589969 4.96019348,10.4200619 C3.90750787,10.6031377 3.61000976,10.6870474 3.25911455,10.8472387 C1.51226669,11.6481952 0.215480063,13.5704906 0.139198497,15.4699016 C0.101057714,16.5225872 0.444324762,17.4303379 0.467209232,17.483735 C0.551118955,17.7049515 0.657913147,17.9185399 1.02406467,18.5440487 C1.46649775,19.2992363 1.69534245,19.6806441 2.22168525,20.4434597 C3.33539612,22.0758853 3.85411077,25.8213102 3.03789801,28.8268039 C2.83956594,29.5438506 2.58783677,30.2151284 2.15303184,31.3288392 C1.89367452,32.000117 1.62668904,32.633254 1.14611517,33.3655571 C0.978295725,33.6172862 0.894386003,33.7240804 0.802848123,33.8461309 C-0.27272196,35.3717622 0.0324043044,37.1796354 0.0629169309,37.4008519 C0.101057714,37.6754655 0.20022375,38.1636676 0.451952919,38.7281512 C0.566375268,38.9798803 1.10034623,40.131732 2.30559498,40.9479447 C3.26674271,41.5963381 4.22026229,41.7336449 4.63218275,41.8022983 C10.4219536,42.8015868 13.7554581,43.4042112 15.5709593,45.2120843 C16.6617857,46.3029107 17.3330635,47.241174 17.3330635,47.241174 C17.9967131,48.2480906 18.088251,48.7896897 18.9044638,49.8423754 C19.3316406,50.3916026 19.6672794,50.8264076 20.2393912,51.238328 C21.6582283,52.260501 23.2296286,52.2299884 23.4889859,52.2223602 C25.2816027,52.161335 26.5707612,51.1925591 27.1276166,50.5899347 C27.4174866,50.2771803 27.6615876,49.9034006 27.6615876,49.9034006 C28.1345333,49.1863539 28.3023527,48.5379606 28.363378,48.3548848 C28.6761324,47.3250837 29.6143957,46.4097049 30.5602871,45.4943261 C31.2697057,44.807792 33.138604,42.9999189 35.9457657,42.3667819 C38.4096603,41.8099264 39.8056129,42.5651139 42.8034785,41.4208904 C43.024695,41.3369807 43.2153989,41.253071 43.3832184,41.1844176 C43.512897,41.1386487 43.5891786,41.1005079 43.6120631,41.0852516 C43.8714204,40.9632011 45.7860877,40.0096815 46.4039684,37.8051442 C46.823517,36.33291 46.4039684,35.0742641 46.2590334,34.6623437 Z M21.8489322,10.5421124 C22.1921993,10.5115998 22.4363003,10.4963435 22.4363003,10.4963435 C22.2379682,10.5039717 22.0472643,10.519228 21.8489322,10.5421124 Z" id="形状"></path>
        </g>
    </g>
</svg>